<?xml version="1.0" encoding="UTF-8"?>
<svg xmlns="http://www.w3.org/2000/svg" version="1.1" viewBox="0 0 40 40">
  <defs>
    <style>
      .cls-1 {
        fill: #f6f8f8;
      }
    </style>
  </defs>
  <!-- Generator: Adobe Illustrator 28.6.0, SVG Export Plug-In . SVG Version: 1.2.0 Build 709)  -->
  <g>
    <g id="Layer_1">
      <path class="cls-1" d="M33.9,5.4c-2.4-2.4-6.4-2.4-14.2-2.4s-11.8,0-14.2,2.4c-2.4,2.4-2.4,6.4-2.4,14.2s0,11.8,2.4,14.2c2.4,2.4,6.4,2.4,14.2,2.4s11.8,0,14.2-2.4c2.4-2.4,2.4-6.4,2.4-14.2s0-11.8-2.4-14.2ZM21.8,31h-3.5v-3.5h3.5v3.5ZM21.8,25.8h-3.5c0-5.6,5.2-5.2,5.2-8.8s-1.6-3.5-3.5-3.5-3.5,1.6-3.5,3.5h-3.5c0-3.8,3.2-7,7-7s7,3.2,7,7-5.2,4.9-5.2,8.8Z"/>
    </g>
  </g>
</svg>